<svg xmlns="http://www.w3.org/2000/svg" xmlns:xlink="http://www.w3.org/1999/xlink" width="192" zoomAndPan="magnify" viewBox="0 0 144 143.999998" height="192" preserveAspectRatio="xMidYMid meet" version="1.0"><defs><g/><clipPath id="af72c636c7"><path d="M 1.59375 1.5625 L 142.59375 1.5625 L 142.59375 142.5625 L 1.59375 142.5625 Z M 1.59375 1.5625 " clip-rule="nonzero"/></clipPath><clipPath id="82b6a85536"><path d="M 142.59375 72.0625 C 142.59375 73.214844 142.566406 74.371094 142.507812 75.523438 C 142.453125 76.675781 142.367188 77.824219 142.253906 78.972656 C 142.140625 80.121094 142 81.265625 141.832031 82.40625 C 141.660156 83.546875 141.464844 84.683594 141.238281 85.816406 C 141.015625 86.949219 140.761719 88.074219 140.480469 89.191406 C 140.199219 90.3125 139.894531 91.421875 139.558594 92.527344 C 139.222656 93.632812 138.863281 94.726562 138.472656 95.8125 C 138.085938 96.898438 137.667969 97.976562 137.226562 99.042969 C 136.785156 100.109375 136.320312 101.164062 135.824219 102.207031 C 135.332031 103.25 134.8125 104.277344 134.269531 105.296875 C 133.726562 106.3125 133.15625 107.316406 132.5625 108.308594 C 131.96875 109.296875 131.351562 110.269531 130.710938 111.230469 C 130.070312 112.191406 129.40625 113.132812 128.71875 114.058594 C 128.03125 114.984375 127.324219 115.894531 126.589844 116.789062 C 125.859375 117.679688 125.105469 118.554688 124.332031 119.40625 C 123.554688 120.261719 122.761719 121.097656 121.945312 121.914062 C 121.128906 122.730469 120.292969 123.523438 119.4375 124.300781 C 118.582031 125.074219 117.710938 125.828125 116.820312 126.558594 C 115.925781 127.292969 115.015625 128 114.089844 128.6875 C 113.164062 129.375 112.222656 130.039062 111.261719 130.679688 C 110.300781 131.324219 109.328125 131.941406 108.339844 132.53125 C 107.347656 133.125 106.34375 133.695312 105.328125 134.238281 C 104.308594 134.78125 103.28125 135.300781 102.238281 135.792969 C 101.195312 136.289062 100.140625 136.753906 99.074219 137.195312 C 98.007812 137.636719 96.929688 138.054688 95.84375 138.441406 C 94.757812 138.832031 93.664062 139.191406 92.558594 139.527344 C 91.453125 139.863281 90.34375 140.167969 89.222656 140.449219 C 88.105469 140.730469 86.980469 140.984375 85.847656 141.207031 C 84.714844 141.433594 83.578125 141.628906 82.4375 141.800781 C 81.296875 141.96875 80.152344 142.109375 79.003906 142.222656 C 77.855469 142.335938 76.707031 142.421875 75.554688 142.476562 C 74.402344 142.535156 73.246094 142.5625 72.09375 142.5625 C 70.941406 142.5625 69.785156 142.535156 68.632812 142.476562 C 67.480469 142.421875 66.332031 142.335938 65.183594 142.222656 C 64.035156 142.109375 62.890625 141.96875 61.75 141.800781 C 60.609375 141.628906 59.472656 141.433594 58.339844 141.207031 C 57.207031 140.984375 56.082031 140.730469 54.964844 140.449219 C 53.84375 140.167969 52.734375 139.863281 51.628906 139.527344 C 50.523438 139.191406 49.429688 138.832031 48.34375 138.441406 C 47.257812 138.054688 46.179688 137.636719 45.113281 137.195312 C 44.046875 136.753906 42.996094 136.289062 41.953125 135.792969 C 40.910156 135.300781 39.878906 134.78125 38.859375 134.238281 C 37.84375 133.695312 36.839844 133.125 35.851562 132.53125 C 34.859375 131.941406 33.886719 131.324219 32.925781 130.679688 C 31.96875 130.039062 31.023438 129.375 30.097656 128.6875 C 29.171875 128 28.261719 127.292969 27.371094 126.558594 C 26.476562 125.828125 25.605469 125.074219 24.75 124.300781 C 23.894531 123.523438 23.058594 122.730469 22.242188 121.914062 C 21.425781 121.097656 20.632812 120.261719 19.855469 119.40625 C 19.082031 118.554688 18.328125 117.679688 17.597656 116.789062 C 16.863281 115.894531 16.15625 114.984375 15.46875 114.058594 C 14.78125 113.132812 14.117188 112.191406 13.476562 111.230469 C 12.835938 110.269531 12.21875 109.296875 11.625 108.308594 C 11.03125 107.316406 10.460938 106.3125 9.917969 105.296875 C 9.375 104.277344 8.855469 103.25 8.363281 102.207031 C 7.871094 101.164062 7.402344 100.109375 6.960938 99.042969 C 6.519531 97.976562 6.105469 96.898438 5.714844 95.8125 C 5.328125 94.726562 4.964844 93.632812 4.628906 92.527344 C 4.292969 91.421875 3.988281 90.3125 3.707031 89.191406 C 3.425781 88.074219 3.171875 86.949219 2.949219 85.816406 C 2.722656 84.683594 2.527344 83.546875 2.355469 82.40625 C 2.1875 81.265625 2.046875 80.121094 1.933594 78.972656 C 1.820312 77.824219 1.734375 76.675781 1.679688 75.523438 C 1.621094 74.371094 1.59375 73.214844 1.59375 72.0625 C 1.59375 70.910156 1.621094 69.757812 1.679688 68.605469 C 1.734375 67.449219 1.820312 66.300781 1.933594 65.152344 C 2.046875 64.003906 2.1875 62.859375 2.355469 61.71875 C 2.527344 60.578125 2.722656 59.441406 2.949219 58.308594 C 3.171875 57.175781 3.425781 56.050781 3.707031 54.933594 C 3.988281 53.8125 4.292969 52.703125 4.628906 51.597656 C 4.964844 50.492188 5.328125 49.398438 5.714844 48.3125 C 6.105469 47.226562 6.519531 46.148438 6.960938 45.082031 C 7.402344 44.019531 7.871094 42.964844 8.363281 41.921875 C 8.855469 40.878906 9.375 39.847656 9.917969 38.828125 C 10.460938 37.8125 11.03125 36.808594 11.625 35.820312 C 12.21875 34.828125 12.835938 33.855469 13.476562 32.894531 C 14.117188 31.9375 14.78125 30.992188 15.46875 30.066406 C 16.15625 29.140625 16.863281 28.230469 17.597656 27.339844 C 18.328125 26.445312 19.082031 25.574219 19.855469 24.71875 C 20.632812 23.863281 21.425781 23.027344 22.242188 22.210938 C 23.058594 21.394531 23.894531 20.601562 24.75 19.824219 C 25.605469 19.050781 26.476562 18.296875 27.371094 17.566406 C 28.261719 16.832031 29.171875 16.125 30.097656 15.4375 C 31.023438 14.75 31.96875 14.085938 32.925781 13.445312 C 33.886719 12.804688 34.859375 12.1875 35.851562 11.59375 C 36.839844 11 37.84375 10.429688 38.859375 9.886719 C 39.878906 9.34375 40.910156 8.824219 41.953125 8.332031 C 42.996094 7.839844 44.046875 7.371094 45.113281 6.929688 C 46.179688 6.488281 47.257812 6.074219 48.34375 5.683594 C 49.429688 5.296875 50.523438 4.933594 51.628906 4.597656 C 52.734375 4.261719 53.84375 3.957031 54.964844 3.675781 C 56.082031 3.394531 57.207031 3.140625 58.339844 2.917969 C 59.472656 2.691406 60.609375 2.496094 61.75 2.324219 C 62.890625 2.15625 64.035156 2.015625 65.183594 1.902344 C 66.332031 1.789062 67.480469 1.703125 68.632812 1.648438 C 69.785156 1.589844 70.941406 1.5625 72.09375 1.5625 C 73.246094 1.5625 74.402344 1.589844 75.554688 1.648438 C 76.707031 1.703125 77.855469 1.789062 79.003906 1.902344 C 80.152344 2.015625 81.296875 2.15625 82.4375 2.324219 C 83.578125 2.496094 84.714844 2.691406 85.847656 2.917969 C 86.980469 3.140625 88.105469 3.394531 89.222656 3.675781 C 90.34375 3.957031 91.453125 4.261719 92.558594 4.597656 C 93.664062 4.933594 94.757812 5.296875 95.84375 5.683594 C 96.929688 6.074219 98.007812 6.488281 99.074219 6.929688 C 100.140625 7.371094 101.195312 7.839844 102.238281 8.332031 C 103.28125 8.824219 104.308594 9.34375 105.328125 9.886719 C 106.34375 10.429688 107.347656 11 108.339844 11.59375 C 109.328125 12.1875 110.300781 12.804688 111.261719 13.445312 C 112.222656 14.085938 113.164062 14.75 114.089844 15.4375 C 115.015625 16.125 115.925781 16.832031 116.820312 17.566406 C 117.710938 18.296875 118.582031 19.050781 119.4375 19.824219 C 120.292969 20.601562 121.128906 21.394531 121.945312 22.210938 C 122.761719 23.027344 123.554688 23.863281 124.332031 24.71875 C 125.105469 25.574219 125.859375 26.445312 126.589844 27.339844 C 127.324219 28.230469 128.03125 29.140625 128.71875 30.066406 C 129.40625 30.992188 130.070312 31.9375 130.710938 32.894531 C 131.351562 33.855469 131.96875 34.828125 132.5625 35.820312 C 133.15625 36.808594 133.726562 37.8125 134.269531 38.828125 C 134.8125 39.847656 135.332031 40.878906 135.824219 41.921875 C 136.320312 42.964844 136.785156 44.019531 137.226562 45.082031 C 137.667969 46.148438 138.085938 47.226562 138.472656 48.3125 C 138.863281 49.398438 139.222656 50.492188 139.558594 51.597656 C 139.894531 52.703125 140.199219 53.8125 140.480469 54.933594 C 140.761719 56.050781 141.015625 57.175781 141.238281 58.308594 C 141.464844 59.441406 141.660156 60.578125 141.832031 61.71875 C 142 62.859375 142.140625 64.003906 142.253906 65.152344 C 142.367188 66.300781 142.453125 67.449219 142.507812 68.605469 C 142.566406 69.757812 142.59375 70.910156 142.59375 72.0625 Z M 142.59375 72.0625 " clip-rule="nonzero"/></clipPath><linearGradient x1="0.00000000179323" gradientTransform="matrix(140.999998, 0, 0, 140.999998, 1.593894, 1.562792)" y1="0.00000000177565" x2="1.004902" gradientUnits="userSpaceOnUse" y2="0.995049" id="65c536bf51"><stop stop-opacity="1" stop-color="rgb(92.498779%, 28.199768%, 59.999084%)" offset="0"/><stop stop-opacity="1" stop-color="rgb(92.396545%, 28.218079%, 60.140991%)" offset="0.0078125"/><stop stop-opacity="1" stop-color="rgb(92.190552%, 28.257751%, 60.426331%)" offset="0.015625"/><stop stop-opacity="1" stop-color="rgb(91.986084%, 28.297424%, 60.710144%)" offset="0.0234375"/><stop stop-opacity="1" stop-color="rgb(91.78009%, 28.337097%, 60.995483%)" offset="0.03125"/><stop stop-opacity="1" stop-color="rgb(91.574097%, 28.37677%, 61.280823%)" offset="0.0390625"/><stop stop-opacity="1" stop-color="rgb(91.369629%, 28.414917%, 61.566162%)" offset="0.046875"/><stop stop-opacity="1" stop-color="rgb(91.163635%, 28.45459%, 61.849976%)" offset="0.0546875"/><stop stop-opacity="1" stop-color="rgb(90.959167%, 28.494263%, 62.135315%)" offset="0.0625"/><stop stop-opacity="1" stop-color="rgb(90.753174%, 28.533936%, 62.420654%)" offset="0.0703125"/><stop stop-opacity="1" stop-color="rgb(90.54718%, 28.573608%, 62.704468%)" offset="0.078125"/><stop stop-opacity="1" stop-color="rgb(90.342712%, 28.611755%, 62.989807%)" offset="0.0859375"/><stop stop-opacity="1" stop-color="rgb(90.136719%, 28.651428%, 63.275146%)" offset="0.09375"/><stop stop-opacity="1" stop-color="rgb(89.932251%, 28.691101%, 63.55896%)" offset="0.101562"/><stop stop-opacity="1" stop-color="rgb(89.726257%, 28.730774%, 63.844299%)" offset="0.109375"/><stop stop-opacity="1" stop-color="rgb(89.52179%, 28.770447%, 64.129639%)" offset="0.117188"/><stop stop-opacity="1" stop-color="rgb(89.315796%, 28.81012%, 64.414978%)" offset="0.125"/><stop stop-opacity="1" stop-color="rgb(89.109802%, 28.848267%, 64.698792%)" offset="0.132812"/><stop stop-opacity="1" stop-color="rgb(88.905334%, 28.887939%, 64.984131%)" offset="0.140625"/><stop stop-opacity="1" stop-color="rgb(88.699341%, 28.927612%, 65.26947%)" offset="0.148437"/><stop stop-opacity="1" stop-color="rgb(88.494873%, 28.967285%, 65.553284%)" offset="0.15625"/><stop stop-opacity="1" stop-color="rgb(88.288879%, 29.006958%, 65.838623%)" offset="0.164062"/><stop stop-opacity="1" stop-color="rgb(88.082886%, 29.045105%, 66.123962%)" offset="0.171875"/><stop stop-opacity="1" stop-color="rgb(87.878418%, 29.084778%, 66.407776%)" offset="0.179688"/><stop stop-opacity="1" stop-color="rgb(87.672424%, 29.124451%, 66.693115%)" offset="0.1875"/><stop stop-opacity="1" stop-color="rgb(87.467957%, 29.164124%, 66.978455%)" offset="0.195312"/><stop stop-opacity="1" stop-color="rgb(87.261963%, 29.203796%, 67.263794%)" offset="0.203125"/><stop stop-opacity="1" stop-color="rgb(87.057495%, 29.241943%, 67.547607%)" offset="0.210938"/><stop stop-opacity="1" stop-color="rgb(86.851501%, 29.281616%, 67.832947%)" offset="0.21875"/><stop stop-opacity="1" stop-color="rgb(86.645508%, 29.321289%, 68.118286%)" offset="0.226562"/><stop stop-opacity="1" stop-color="rgb(86.44104%, 29.360962%, 68.4021%)" offset="0.234375"/><stop stop-opacity="1" stop-color="rgb(86.235046%, 29.400635%, 68.687439%)" offset="0.242187"/><stop stop-opacity="1" stop-color="rgb(86.030579%, 29.438782%, 68.972778%)" offset="0.25"/><stop stop-opacity="1" stop-color="rgb(85.824585%, 29.478455%, 69.256592%)" offset="0.257812"/><stop stop-opacity="1" stop-color="rgb(85.618591%, 29.518127%, 69.541931%)" offset="0.265625"/><stop stop-opacity="1" stop-color="rgb(85.414124%, 29.5578%, 69.827271%)" offset="0.273438"/><stop stop-opacity="1" stop-color="rgb(85.20813%, 29.597473%, 70.11261%)" offset="0.28125"/><stop stop-opacity="1" stop-color="rgb(85.003662%, 29.63562%, 70.396423%)" offset="0.289062"/><stop stop-opacity="1" stop-color="rgb(84.797668%, 29.675293%, 70.681763%)" offset="0.296875"/><stop stop-opacity="1" stop-color="rgb(84.591675%, 29.714966%, 70.967102%)" offset="0.304687"/><stop stop-opacity="1" stop-color="rgb(84.387207%, 29.754639%, 71.250916%)" offset="0.3125"/><stop stop-opacity="1" stop-color="rgb(84.181213%, 29.794312%, 71.536255%)" offset="0.320312"/><stop stop-opacity="1" stop-color="rgb(83.976746%, 29.832458%, 71.821594%)" offset="0.328125"/><stop stop-opacity="1" stop-color="rgb(83.770752%, 29.872131%, 72.105408%)" offset="0.335937"/><stop stop-opacity="1" stop-color="rgb(83.566284%, 29.911804%, 72.390747%)" offset="0.34375"/><stop stop-opacity="1" stop-color="rgb(83.360291%, 29.951477%, 72.676086%)" offset="0.351562"/><stop stop-opacity="1" stop-color="rgb(83.154297%, 29.99115%, 72.961426%)" offset="0.359375"/><stop stop-opacity="1" stop-color="rgb(82.949829%, 30.029297%, 73.245239%)" offset="0.367187"/><stop stop-opacity="1" stop-color="rgb(82.743835%, 30.06897%, 73.530579%)" offset="0.375"/><stop stop-opacity="1" stop-color="rgb(82.539368%, 30.108643%, 73.815918%)" offset="0.382812"/><stop stop-opacity="1" stop-color="rgb(82.333374%, 30.148315%, 74.099731%)" offset="0.390625"/><stop stop-opacity="1" stop-color="rgb(82.12738%, 30.187988%, 74.385071%)" offset="0.398437"/><stop stop-opacity="1" stop-color="rgb(81.922913%, 30.226135%, 74.67041%)" offset="0.40625"/><stop stop-opacity="1" stop-color="rgb(81.716919%, 30.265808%, 74.954224%)" offset="0.414062"/><stop stop-opacity="1" stop-color="rgb(81.512451%, 30.305481%, 75.239563%)" offset="0.421875"/><stop stop-opacity="1" stop-color="rgb(81.306458%, 30.345154%, 75.524902%)" offset="0.429687"/><stop stop-opacity="1" stop-color="rgb(81.10199%, 30.384827%, 75.810242%)" offset="0.4375"/><stop stop-opacity="1" stop-color="rgb(80.895996%, 30.422974%, 76.094055%)" offset="0.445312"/><stop stop-opacity="1" stop-color="rgb(80.690002%, 30.462646%, 76.379395%)" offset="0.453125"/><stop stop-opacity="1" stop-color="rgb(80.485535%, 30.502319%, 76.664734%)" offset="0.460938"/><stop stop-opacity="1" stop-color="rgb(80.279541%, 30.541992%, 76.948547%)" offset="0.46875"/><stop stop-opacity="1" stop-color="rgb(80.075073%, 30.581665%, 77.233887%)" offset="0.476562"/><stop stop-opacity="1" stop-color="rgb(79.86908%, 30.619812%, 77.519226%)" offset="0.484375"/><stop stop-opacity="1" stop-color="rgb(79.663086%, 30.659485%, 77.80304%)" offset="0.492187"/><stop stop-opacity="1" stop-color="rgb(79.458618%, 30.699158%, 78.088379%)" offset="0.497537"/><stop stop-opacity="1" stop-color="rgb(79.356384%, 30.718994%, 78.231812%)" offset="0.5"/><stop stop-opacity="1" stop-color="rgb(79.252625%, 30.738831%, 78.373718%)" offset="0.502463"/><stop stop-opacity="1" stop-color="rgb(79.150391%, 30.758667%, 78.517151%)" offset="0.507812"/><stop stop-opacity="1" stop-color="rgb(79.048157%, 30.778503%, 78.659058%)" offset="0.515625"/><stop stop-opacity="1" stop-color="rgb(78.842163%, 30.818176%, 78.942871%)" offset="0.523437"/><stop stop-opacity="1" stop-color="rgb(78.637695%, 30.856323%, 79.22821%)" offset="0.53125"/><stop stop-opacity="1" stop-color="rgb(78.431702%, 30.895996%, 79.51355%)" offset="0.539062"/><stop stop-opacity="1" stop-color="rgb(78.225708%, 30.935669%, 79.797363%)" offset="0.546875"/><stop stop-opacity="1" stop-color="rgb(78.02124%, 30.975342%, 80.082703%)" offset="0.554687"/><stop stop-opacity="1" stop-color="rgb(77.815247%, 31.015015%, 80.368042%)" offset="0.5625"/><stop stop-opacity="1" stop-color="rgb(77.610779%, 31.053162%, 80.651855%)" offset="0.570312"/><stop stop-opacity="1" stop-color="rgb(77.404785%, 31.092834%, 80.937195%)" offset="0.578125"/><stop stop-opacity="1" stop-color="rgb(77.198792%, 31.132507%, 81.222534%)" offset="0.585937"/><stop stop-opacity="1" stop-color="rgb(76.994324%, 31.17218%, 81.507874%)" offset="0.59375"/><stop stop-opacity="1" stop-color="rgb(76.78833%, 31.211853%, 81.791687%)" offset="0.601563"/><stop stop-opacity="1" stop-color="rgb(76.583862%, 31.25%, 82.077026%)" offset="0.609375"/><stop stop-opacity="1" stop-color="rgb(76.377869%, 31.289673%, 82.362366%)" offset="0.617188"/><stop stop-opacity="1" stop-color="rgb(76.171875%, 31.329346%, 82.646179%)" offset="0.625"/><stop stop-opacity="1" stop-color="rgb(75.967407%, 31.369019%, 82.931519%)" offset="0.632813"/><stop stop-opacity="1" stop-color="rgb(75.761414%, 31.408691%, 83.216858%)" offset="0.640625"/><stop stop-opacity="1" stop-color="rgb(75.556946%, 31.446838%, 83.500671%)" offset="0.648438"/><stop stop-opacity="1" stop-color="rgb(75.350952%, 31.486511%, 83.786011%)" offset="0.65625"/><stop stop-opacity="1" stop-color="rgb(75.146484%, 31.526184%, 84.07135%)" offset="0.664063"/><stop stop-opacity="1" stop-color="rgb(74.940491%, 31.565857%, 84.356689%)" offset="0.671875"/><stop stop-opacity="1" stop-color="rgb(74.734497%, 31.60553%, 84.640503%)" offset="0.679688"/><stop stop-opacity="1" stop-color="rgb(74.530029%, 31.643677%, 84.925842%)" offset="0.6875"/><stop stop-opacity="1" stop-color="rgb(74.324036%, 31.68335%, 85.211182%)" offset="0.695313"/><stop stop-opacity="1" stop-color="rgb(74.119568%, 31.723022%, 85.494995%)" offset="0.703125"/><stop stop-opacity="1" stop-color="rgb(73.913574%, 31.762695%, 85.780334%)" offset="0.710938"/><stop stop-opacity="1" stop-color="rgb(73.707581%, 31.802368%, 86.065674%)" offset="0.71875"/><stop stop-opacity="1" stop-color="rgb(73.503113%, 31.840515%, 86.349487%)" offset="0.726562"/><stop stop-opacity="1" stop-color="rgb(73.297119%, 31.880188%, 86.634827%)" offset="0.734375"/><stop stop-opacity="1" stop-color="rgb(73.092651%, 31.919861%, 86.920166%)" offset="0.742188"/><stop stop-opacity="1" stop-color="rgb(72.886658%, 31.959534%, 87.203979%)" offset="0.75"/><stop stop-opacity="1" stop-color="rgb(72.68219%, 31.999207%, 87.489319%)" offset="0.757812"/><stop stop-opacity="1" stop-color="rgb(72.476196%, 32.037354%, 87.774658%)" offset="0.765625"/><stop stop-opacity="1" stop-color="rgb(72.270203%, 32.077026%, 88.059998%)" offset="0.773437"/><stop stop-opacity="1" stop-color="rgb(72.065735%, 32.116699%, 88.343811%)" offset="0.78125"/><stop stop-opacity="1" stop-color="rgb(71.859741%, 32.156372%, 88.62915%)" offset="0.789062"/><stop stop-opacity="1" stop-color="rgb(71.655273%, 32.196045%, 88.91449%)" offset="0.796875"/><stop stop-opacity="1" stop-color="rgb(71.44928%, 32.234192%, 89.198303%)" offset="0.804687"/><stop stop-opacity="1" stop-color="rgb(71.243286%, 32.273865%, 89.483643%)" offset="0.8125"/><stop stop-opacity="1" stop-color="rgb(71.038818%, 32.313538%, 89.768982%)" offset="0.820312"/><stop stop-opacity="1" stop-color="rgb(70.832825%, 32.35321%, 90.052795%)" offset="0.828125"/><stop stop-opacity="1" stop-color="rgb(70.628357%, 32.392883%, 90.338135%)" offset="0.835937"/><stop stop-opacity="1" stop-color="rgb(70.422363%, 32.43103%, 90.623474%)" offset="0.84375"/><stop stop-opacity="1" stop-color="rgb(70.217896%, 32.470703%, 90.908813%)" offset="0.851562"/><stop stop-opacity="1" stop-color="rgb(70.011902%, 32.510376%, 91.192627%)" offset="0.859375"/><stop stop-opacity="1" stop-color="rgb(69.805908%, 32.550049%, 91.477966%)" offset="0.867187"/><stop stop-opacity="1" stop-color="rgb(69.60144%, 32.589722%, 91.763306%)" offset="0.875"/><stop stop-opacity="1" stop-color="rgb(69.395447%, 32.627869%, 92.047119%)" offset="0.882812"/><stop stop-opacity="1" stop-color="rgb(69.190979%, 32.667542%, 92.332458%)" offset="0.890625"/><stop stop-opacity="1" stop-color="rgb(68.984985%, 32.707214%, 92.617798%)" offset="0.898437"/><stop stop-opacity="1" stop-color="rgb(68.778992%, 32.746887%, 92.901611%)" offset="0.90625"/><stop stop-opacity="1" stop-color="rgb(68.574524%, 32.78656%, 93.186951%)" offset="0.914062"/><stop stop-opacity="1" stop-color="rgb(68.36853%, 32.826233%, 93.47229%)" offset="0.921875"/><stop stop-opacity="1" stop-color="rgb(68.164062%, 32.86438%, 93.757629%)" offset="0.929687"/><stop stop-opacity="1" stop-color="rgb(67.958069%, 32.904053%, 94.041443%)" offset="0.9375"/><stop stop-opacity="1" stop-color="rgb(67.753601%, 32.943726%, 94.326782%)" offset="0.945312"/><stop stop-opacity="1" stop-color="rgb(67.547607%, 32.983398%, 94.612122%)" offset="0.953125"/><stop stop-opacity="1" stop-color="rgb(67.341614%, 33.023071%, 94.895935%)" offset="0.960937"/><stop stop-opacity="1" stop-color="rgb(67.137146%, 33.061218%, 95.181274%)" offset="0.96875"/><stop stop-opacity="1" stop-color="rgb(66.931152%, 33.100891%, 95.466614%)" offset="0.976562"/><stop stop-opacity="1" stop-color="rgb(66.726685%, 33.140564%, 95.750427%)" offset="0.984375"/><stop stop-opacity="1" stop-color="rgb(66.520691%, 33.180237%, 96.035767%)" offset="0.992187"/><stop stop-opacity="1" stop-color="rgb(66.314697%, 33.21991%, 96.321106%)" offset="1"/></linearGradient></defs><g clip-path="url(#af72c636c7)"><g clip-path="url(#82b6a85536)"><path fill="url(#65c536bf51)" d="M 1.59375 1.5625 L 1.59375 142.5625 L 142.59375 142.5625 L 142.59375 1.5625 Z M 1.59375 1.5625 " fill-rule="nonzero"/></g></g><g fill="#ffffff" fill-opacity="1"><g transform="translate(42.774484, 106.811995)"><g><path d="M 37.078125 -26.546875 C 37.078125 -22.398438 36.5625 -18.648438 35.53125 -15.296875 C 34.507812 -11.941406 32.96875 -9.0625 30.90625 -6.65625 C 28.851562 -4.257812 26.273438 -2.414062 23.171875 -1.125 C 20.078125 0.164062 16.472656 0.8125 12.359375 0.8125 C 10.484375 0.8125 8.632812 0.703125 6.8125 0.484375 C 4.988281 0.265625 3.078125 -0.0820312 1.078125 -0.5625 C 1.210938 -2.0625 1.347656 -3.554688 1.484375 -5.046875 C 1.617188 -6.546875 1.753906 -8.046875 1.890625 -9.546875 C 1.992188 -10.367188 2.316406 -11.023438 2.859375 -11.515625 C 3.398438 -12.003906 4.179688 -12.25 5.203125 -12.25 C 5.785156 -12.25 6.523438 -12.144531 7.421875 -11.9375 C 8.328125 -11.738281 9.445312 -11.640625 10.78125 -11.640625 C 12.613281 -11.640625 14.207031 -11.894531 15.5625 -12.40625 C 16.925781 -12.914062 18.066406 -13.75 18.984375 -14.90625 C 19.910156 -16.0625 20.601562 -17.566406 21.0625 -19.421875 C 21.519531 -21.285156 21.75 -23.539062 21.75 -26.1875 L 21.75 -74.09375 L 37.078125 -74.09375 Z M 37.078125 -26.546875 "/></g></g></g><g fill="#ffffff" fill-opacity="1"><g transform="translate(77.800372, 106.811995)"><g><path d="M 3.828125 -7.40625 C 3.828125 -8.53125 4.039062 -9.59375 4.46875 -10.59375 C 4.894531 -11.601562 5.484375 -12.472656 6.234375 -13.203125 C 6.984375 -13.929688 7.859375 -14.507812 8.859375 -14.9375 C 9.859375 -15.363281 10.957031 -15.578125 12.15625 -15.578125 C 13.3125 -15.578125 14.398438 -15.363281 15.421875 -14.9375 C 16.441406 -14.507812 17.328125 -13.929688 18.078125 -13.203125 C 18.828125 -12.472656 19.410156 -11.601562 19.828125 -10.59375 C 20.253906 -9.59375 20.46875 -8.53125 20.46875 -7.40625 C 20.46875 -6.25 20.253906 -5.175781 19.828125 -4.1875 C 19.410156 -3.195312 18.828125 -2.335938 18.078125 -1.609375 C 17.328125 -0.878906 16.441406 -0.3125 15.421875 0.09375 C 14.398438 0.507812 13.3125 0.71875 12.15625 0.71875 C 10.957031 0.71875 9.859375 0.507812 8.859375 0.09375 C 7.859375 -0.3125 6.984375 -0.878906 6.234375 -1.609375 C 5.484375 -2.335938 4.894531 -3.195312 4.46875 -4.1875 C 4.039062 -5.175781 3.828125 -6.25 3.828125 -7.40625 Z M 3.828125 -7.40625 "/></g></g></g></svg>