<?xml version="1.0" standalone="no"?>
<!DOCTYPE svg PUBLIC "-//W3C//DTD SVG 20010904//EN"
 "http://www.w3.org/TR/2001/REC-SVG-20010904/DTD/svg10.dtd">
<svg version="1.0" xmlns="http://www.w3.org/2000/svg"
 width="700.000000pt" height="700.000000pt" viewBox="0 0 700.000000 700.000000"
 preserveAspectRatio="xMidYMid meet">
<metadata>
Created by potrace 1.14, written by Peter Selinger 2001-2017
</metadata>
<g transform="translate(0.000000,700.000000) scale(0.100000,-0.100000)"
fill="#000000" stroke="none">
<path d="M3185 6909 c-33 -4 -89 -10 -125 -14 -36 -4 -67 -8 -70 -10 -3 -1
-27 -6 -54 -9 -128 -18 -360 -77 -541 -138 -259 -88 -535 -222 -755 -367 -68
-44 -221 -152 -236 -166 -6 -5 -28 -23 -49 -40 -137 -107 -350 -315 -470 -460
-27 -33 -60 -71 -72 -85 -13 -14 -23 -28 -23 -32 0 -3 -6 -13 -13 -20 -33 -34
-143 -195 -213 -313 -62 -105 -167 -309 -215 -420 -65 -150 -158 -434 -175
-535 -3 -14 -9 -38 -14 -55 -15 -48 -39 -198 -60 -360 -15 -121 -18 -203 -15
-425 1 -151 5 -291 9 -310 3 -19 8 -57 11 -85 10 -77 17 -118 42 -255 23 -128
101 -390 165 -560 55 -142 178 -394 244 -497 19 -29 34 -55 34 -57 0 -7 122
-190 137 -204 7 -7 18 -23 24 -34 6 -11 19 -29 29 -41 9 -12 55 -67 100 -122
90 -109 290 -311 385 -390 33 -28 66 -56 74 -63 55 -52 328 -243 426 -298 11
-6 38 -21 60 -34 175 -100 418 -206 635 -276 72 -24 275 -79 322 -88 13 -2 52
-10 88 -16 74 -14 84 -16 160 -25 30 -4 58 -9 61 -11 16 -9 229 -19 419 -19
211 0 325 7 445 25 33 5 80 12 105 15 25 4 95 17 157 30 570 123 1075 374
1537 765 54 46 263 254 321 320 88 100 204 252 294 387 44 67 81 125 81 128 0
3 12 24 27 48 42 67 147 282 196 402 116 283 198 596 232 885 4 30 9 66 12 80
9 46 11 564 3 635 -5 39 -12 93 -15 120 -3 28 -8 64 -10 80 -20 122 -34 200
-49 263 -2 9 -9 38 -15 63 -40 177 -143 460 -238 656 -147 306 -300 536 -538
809 -22 26 -186 192 -227 230 -62 58 -232 199 -265 221 -15 10 -34 23 -40 30
-21 20 -238 161 -305 198 -100 56 -356 181 -438 213 -213 84 -478 161 -647
188 -19 3 -45 8 -57 10 -11 2 -52 9 -91 14 -38 5 -88 12 -110 16 -63 9 -623
12 -690 3z"/>
</g>
</svg>
